<svg width="147" height="19" fill="none" xmlns="http://www.w3.org/2000/svg"><path d="M.992 18V1.2H4.88V18H.992zm7.875 0V1.2h3.216l9.912 12.096h-1.56V1.2h3.84V18h-3.192L11.147 5.904h1.56V18h-3.84zm19.383 0V1.2h3.216l9.912 12.096h-1.56V1.2h3.84V18h-3.192L30.53 5.904h1.56V18h-3.84zm27.543.288c-1.328 0-2.56-.216-3.696-.648a8.878 8.878 0 01-2.928-1.824 8.564 8.564 0 01-1.92-2.76C46.8 12 46.577 10.848 46.577 9.6c0-1.248.224-2.4.672-3.456a8.39 8.39 0 011.944-2.76A8.878 8.878 0 0152.12 1.56c1.12-.432 2.336-.648 3.648-.648 1.328 0 2.544.216 3.648.648a8.61 8.61 0 012.904 1.824 8.39 8.39 0 011.944 2.76c.464 1.04.696 2.192.696 3.456 0 1.248-.232 2.408-.696 3.48a8.39 8.39 0 01-1.944 2.76c-.816.768-1.784 1.368-2.904 1.8-1.104.432-2.312.648-3.624.648zm-.024-3.312c.752 0 1.44-.128 2.064-.384a4.897 4.897 0 002.784-2.808c.272-.656.408-1.384.408-2.184 0-.8-.136-1.528-.408-2.184a4.897 4.897 0 00-1.104-1.704 4.702 4.702 0 00-1.656-1.104 5.571 5.571 0 00-2.088-.384c-.752 0-1.448.128-2.088.384a5.009 5.009 0 00-1.656 1.104 5.194 5.194 0 00-1.128 1.704c-.256.656-.384 1.384-.384 2.184 0 .784.128 1.512.384 2.184.272.656.64 1.224 1.104 1.704.48.48 1.04.848 1.68 1.104.64.256 1.336.384 2.088.384zM67.883 18V1.2h3.216l7.152 11.856h-1.704L83.579 1.2h3.192l.048 16.8H83.17l-.024-11.208h.672l-5.616 9.432H76.45l-5.736-9.432h.816V18h-3.648zm20.714 0l7.488-16.8h3.84l7.512 16.8h-4.08L97.213 3.168h1.536L92.58 18h-3.984zm3.744-3.6l1.032-2.952h8.64l1.056 2.952H92.341z" fill="#fff"/><path d="M110.332 18.192c-.64 0-1.192-.216-1.656-.648-.448-.448-.672-1.016-.672-1.704s.224-1.24.672-1.656a2.347 2.347 0 011.656-.648c.656 0 1.208.216 1.656.648.448.416.672.968.672 1.656s-.224 1.256-.672 1.704c-.448.432-1 .648-1.656.648zm9.255-.192l-7.248-16.8h4.2l6.336 14.88h-2.472l6.432-14.88h3.864L123.427 18h-3.84zm20.367.288c-1.296 0-2.504-.208-3.624-.624a8.664 8.664 0 01-2.88-1.824 8.564 8.564 0 01-1.92-2.76c-.448-1.056-.672-2.216-.672-3.48 0-1.264.224-2.424.672-3.48a8.564 8.564 0 011.92-2.76 8.616 8.616 0 012.904-1.8c1.104-.432 2.312-.648 3.624-.648 1.456 0 2.768.256 3.936.768a7.566 7.566 0 012.976 2.208l-2.496 2.304c-.576-.656-1.216-1.144-1.92-1.464a5.28 5.28 0 00-2.304-.504c-.784 0-1.504.128-2.16.384a4.897 4.897 0 00-1.704 1.104 5.194 5.194 0 00-1.128 1.704c-.256.656-.384 1.384-.384 2.184 0 .8.128 1.528.384 2.184a5.194 5.194 0 001.128 1.704c.48.48 1.048.848 1.704 1.104a5.893 5.893 0 002.16.384c.832 0 1.6-.16 2.304-.48.704-.336 1.344-.84 1.92-1.512l2.496 2.304a7.78 7.78 0 01-2.976 2.232c-1.168.512-2.488.768-3.96.768z" fill="#00B1E9"/></svg>